<?xml version="1.0" encoding="UTF-8"?><svg id="blueberries" xmlns="http://www.w3.org/2000/svg" viewBox="0 0 135.89 86.4"><defs><style>.cls-1{fill:#314d86;}.cls-2{fill:#2a4071;}.cls-3{fill:#344967;}.cls-4{fill:#213452;}.cls-5{fill:#248120;}.cls-6{fill:#1b2c4f;}.cls-7{fill:#5dc22a;}.cls-8{fill:#21355e;}.cls-9{fill:#203450;}.cls-10{fill:#299a26;}.cls-11{fill:#293a53;}</style></defs><g id="leafr"><path class="cls-10" d="M102.78,24.82s23.88-11.28,31.41,5.9-23.06,19.6-23.06,19.6l-8.53-13.63-.58-.93-1.24-1.97,2-8.96Z"/><path class="cls-7" d="M102.77,35.83c2.15-.1,4.29-.56,6.29-1.36,1.3-3.06,2.18-6.3,2.59-9.6,.91,2.99,.94,6.24,.09,9.25l4.3-1.39c.38-.12,.77-.25,1.08-.49,.29-.22,.5-.52,.7-.83,1.26-1.89,2.3-3.92,3.08-6.05,.25,2.34,.41,4.98-1.11,6.78,3.82-.35,7.67-.41,11.5-.18l-9.71,.92c1.43,1.09,2.69,2.41,3.7,3.9-2.42-1.43-5.05-2.87-7.85-2.64-2.3,.18-4.38,1.47-6.66,1.84,2.89,1.31,5.45,3.34,7.36,5.87-2.23-1.55-4.88-2.34-7.48-3.11-2.09-.62-4.43-1.21-6.34-.18"/><path class="cls-5" d="M104.49,31.96c-.09,.55-.22,1.11-.48,1.58-.44,.81-1.21,1.28-1.96,1.66-.77,.39-1.65,.73-2.41,.35-.66-.33-1.07-1.13-1.27-1.94s-.23-1.67-.37-2.5c1.2-1.55,2.51-3,3.9-4.32,.73-.69,1.27-2.16,1.99-2.63,1.13,1.97,.99,5.55,.61,7.79Z"/></g><g id="leafl"><path class="cls-10" d="M28.67,58.76S1.58,66.42,.05,49.12,30.77,31.71,30.77,31.71l4.27,4.04-6.37,23.01Z"/><path class="cls-7" d="M31.9,46.41c-2.15-.31-4.15,1.06-5.89,2.36-2.17,1.62-4.39,3.29-5.94,5.51,.92-3.03,2.61-5.83,4.87-8.06-2.26,.45-4.66-.04-6.88,.58-2.7,.76-4.67,3.02-6.44,5.2,.44-1.75,1.16-3.42,2.12-4.94l-9.42,2.5c3.51-1.54,7.14-2.82,10.85-3.81-2.05-1.16-2.81-3.69-3.39-5.97,1.47,1.73,3.15,3.28,4.99,4.61,.29,.21,.6,.42,.95,.53,.38,.12,.79,.1,1.19,.09l4.51-.18c-1.84-2.53-2.94-5.59-3.12-8.71,1.53,2.95,3.47,5.69,5.76,8.1,2.16,.06,4.32-.25,6.37-.9"/><path class="cls-5" d="M1.79,54.63s12.38,5.16,25.59,.51c13.24-4.66,.87,5.1,.18,3.72,.04,.29-5.87,1.71-11.91,1.46-6.13-.26-8.77-1.28-8.74-1.41-2.51-1.17-4.13-2.69-5.12-4.46"/><path class="cls-5" d="M36.72,36.13c-.92,.6-2.12,.32-3.04-.29-.92-.61-1.65-1.52-2.49-2.26-.77-.68-1.62-1.22-2.48-1.74-.1-.06-.2-.13-.29-.21,.41,.01,.83,.01,1.24,.03,.25,.07,.43,.09,.48,.01,.28,0,.56,.02,.84,.03,.23,0,.46-.02,.68-.05,0,.01,.02,.02,.03,.04,.16,.46,.65,.87,1.04,1.18,.44,.34,.93,.59,1.41,.86,.65,.37,1.28,.79,1.88,1.26,.36,.28,.74,.67,.71,1.16Z"/></g><g id="leafu"><path class="cls-10" d="M56.52,28.76l-21.48,6.98S12.41,17.24,28.43,8.69s28.27,10.65,28.27,10.65l-.17,9.43Z"/><path class="cls-7" d="M51.62,32.12c-1.36-1.67-3.01-3.11-4.85-4.24-3.23,.78-6.35,2.01-9.25,3.64,1.86-2.51,4.45-4.48,7.37-5.59l-3.68-2.62c-.32-.23-.66-.47-1.04-.58-.35-.1-.72-.09-1.08-.07-2.27,.11-4.52,.5-6.7,1.14,1.74-1.6,3.75-3.3,6.11-3.15-2.56-2.86-4.9-5.91-7.01-9.12l6.52,7.24c.02-1.8,.34-3.6,.92-5.3,.29,2.79,.71,5.76,2.56,7.87,1.52,1.74,3.79,2.64,5.44,4.25-.68-3.1-.56-6.37,.32-9.41,.08,2.71,1.03,5.32,1.96,7.86,.75,2.04,1.67,4.28,3.64,5.2"/><path class="cls-5" d="M58.23,20.73c.34,2.03,.16,4.13-.23,6.15-.21,1.12-.5,2.26-1.11,3.22-.85,1.36-2.27,2.27-3.75,2.87s-3.06,.94-4.59,1.41c-2.11,.66-4.13,1.58-6.27,2.16s-4.45,.81-6.53,.07c-.23-.08-.48-.19-.61-.4-.13-.21-.12-.48-.07-.72,.19-.9,.85-1.61,1.57-2.19,2.35-1.89,5.41-2.66,8.41-2.94s6.03-.12,9.03-.39l-.32-.12,1.94-8.14c.11-.47,.23-.95,.52-1.34,.63-.84,1.83-.73,2.01,.35Z"/></g><g id="bbu"><path class="cls-6" d="M96.89,41.55c-9.29,9.29-24.42,9.35-33.78,.14s-9.43-24.21-.14-33.5,24.42-9.35,33.78-.14,9.43,24.21,.14,33.5Z"/><path class="cls-8" d="M96.04,37.23c-8.32,8.32-22.08,8.17-30.72-.34s-8.91-22.14-.59-30.46c8.32-8.32,22.08-8.17,30.72,.34s8.91,22.14,.59,30.46Z"/><path class="cls-2" d="M95.48,34.09c-7.6,7.6-20.26,7.37-28.27-.51-8.01-7.88-8.35-20.43-.75-28.03s20.26-7.37,28.27,.51,8.35,20.43,.75,28.03Z"/><path class="cls-1" d="M62.12,20.68c-2-8.94,4.46-17.96,14.41-20.14,9.96-2.18,19.64,3.29,21.64,12.23s-4.46,17.96-14.41,20.14c-9.96,2.18-19.64-3.29-21.64-12.23Z"/><path class="cls-4" d="M85.78,8.25c.45,.47,1.26-.03,1.86,.5,.42,.37,.54,1.08,.4,1.62-.4,1.53-2.88,1.52-2.97,2.52-.09,1,2.37,1.47,2.38,2.78,0,.75-.8,1.58-1.57,1.68-.91,.12-1.32-.81-2.59-.77-.31,0-.89,.03-1.29,.4-1,.91,.28,2.84-.55,3.69-.66,.67-2.43,.45-3.49-.43-1.56-1.29-.33-3.94-1.99-4.18-1.17-.17-3.3,1.46-4.68-.37-.68-.91-.56-2.73,.32-3.91,1.08-1.44,4.01-.27,3.76-2.19-.34-2.64-.22-4.36,2.01-4.36,1.46,0,2.64,2.23,5.08,1.99,1.64-.16,2.74-1.58,3.2-1.19,.43,.36-.45,1.63,.12,2.23Z"/><path class="cls-3" d="M82.79,14.09c-1.02,.96-2.79,1.68-4.5,1.02-1.41-.55-2.84-2.06-2.55-3.62,.32-1.73,2.53-2.36,2.92-2.47,2-.57,4.91-.04,5.47,1.71,.51,1.58-1.2,3.22-1.34,3.36Z"/><path class="cls-9" d="M79.96,12.99c-.67,.02-1.45-.47-1.47-1.11-.01-.56,.56-.98,1.01-1.12,.75-.24,1.78,.12,1.92,.77,.13,.65-.64,1.43-1.46,1.46Z"/><path class="cls-11" d="M77.6,9.4c1.81-.7,3.84-1.16,5.35-.08,1.24,.89,1.87,2.42,1.59,2.67-.4,.36-2.12-2.2-4.4-1.99-2.24,.2-3.33,3.17-3.87,2.64s-.77-2.43,1.34-3.24Z"/></g><g id="bbl"><path class="cls-6" d="M81.37,55.18c0,14.62-11.85,26.47-26.47,26.47s-26.47-11.85-26.47-26.47,11.85-26.47,26.47-26.47,26.47,11.85,26.47,26.47Z"/><path class="cls-8" d="M77.3,52.41c0,13.09-10.94,23.7-24.44,23.7s-24.44-10.61-24.44-23.7,10.94-23.7,24.44-23.7,24.44,10.61,24.44,23.7Z"/><path class="cls-2" d="M74.39,50.36c0,11.96-10.14,21.65-22.64,21.65s-22.64-9.69-22.64-21.65,10.14-21.65,22.64-21.65,22.64,9.69,22.64,21.65Z"/><path class="cls-1" d="M37.6,65.76c-8.6-5.53-10.62-17.72-4.51-27.23,6.11-9.5,18.04-12.72,26.65-7.18,8.6,5.53,10.62,17.72,4.51,27.23-6.11,9.5-18.04,12.72-26.65,7.18Z"/><path class="cls-4" d="M46.43,37.43c.73,.02,.97-1.01,1.85-1.06,.62-.03,1.28,.44,1.59,.97,.89,1.52-1.07,3.46-.35,4.32,.72,.87,3.02-.68,4.06,.35,.59,.59,.61,1.87,.09,2.56-.62,.81-1.67,.38-2.65,1.41-.24,.25-.68,.72-.71,1.32-.07,1.5,2.46,2.03,2.47,3.35,0,1.05-1.56,2.25-3.09,2.38-2.24,.19-3.36-2.86-4.85-1.76-1.06,.78-1.45,3.73-3.97,3.35-1.25-.19-2.59-1.73-2.82-3.35-.28-1.98,2.94-3.34,1.24-4.68-2.34-1.83-3.61-3.29-1.85-5.03,1.15-1.14,3.83-.29,5.56-2.38,1.16-1.41,.91-3.39,1.59-3.44,.63-.05,.93,1.65,1.85,1.68Z"/><path class="cls-3" d="M48.66,44.4c-.05,1.56-.87,3.52-2.74,4.32-1.54,.67-3.85,.58-4.85-.88-1.11-1.62,.13-3.84,.35-4.24,1.12-2.01,3.83-3.86,5.65-2.91,1.64,.86,1.59,3.49,1.59,3.71Z"/><path class="cls-9" d="M45.58,45.73c-.51,.54-1.51,.76-2.03,.26-.45-.43-.33-1.21-.09-1.68,.41-.78,1.5-1.29,2.12-.88,.61,.41,.62,1.64,0,2.29Z"/><path class="cls-11" d="M40.9,44.73c.88-1.97,2.11-3.91,4.15-4.24,1.67-.26,3.38,.46,3.35,.88-.03,.59-3.4-.09-5.03,1.85-1.6,1.91-.13,5.12-.97,5.12s-2.52-1.33-1.5-3.62Z"/></g><g id="bbr"><path class="cls-6" d="M117.3,76.96c-9.32,11.08-26,12.63-37.27,3.47s-12.85-25.57-3.53-36.65c9.32-11.08,26-12.63,37.27-3.47s12.85,25.57,3.53,36.65Z"/><path class="cls-8" d="M115.93,72.31c-8.34,9.92-23.54,11.11-33.94,2.65s-12.07-23.36-3.73-33.28,23.54-11.11,33.94-2.65,12.07,23.36,3.73,33.28Z"/><path class="cls-2" d="M115,68.94c-7.62,9.06-21.61,10.06-31.25,2.22s-11.27-21.54-3.65-30.6,21.61-10.06,31.25-2.22,11.27,21.54,3.65,30.6Z"/><path class="cls-1" d="M76.83,57.54c-3.1-9.59,3.11-20.09,13.87-23.46s22.01,1.67,25.11,11.26-3.11,20.09-13.87,23.46c-10.77,3.37-22.01-1.67-25.11-11.26Z"/><path class="cls-4" d="M101.69,41.6c.54,.47,1.39-.16,2.1,.36,.5,.36,.7,1.13,.61,1.73-.28,1.71-3.03,1.95-3.03,3.06,0,1.11,2.76,1.38,2.9,2.81,.08,.82-.72,1.8-1.56,1.99-.99,.23-1.53-.76-2.94-.59-.34,.04-.98,.12-1.39,.56-1.01,1.09,.6,3.08-.23,4.09-.66,.8-2.64,.73-3.9-.13-1.85-1.26-.77-4.27-2.62-4.38-1.31-.07-3.5,1.92-5.2,.05-.84-.93-.9-2.94-.04-4.31,1.05-1.68,4.4-.69,3.93-2.77-.64-2.85-.68-4.76,1.78-4.97,1.61-.14,3.14,2.18,5.8,1.68,1.79-.34,2.86-2,3.42-1.61,.51,.36-.33,1.83,.36,2.43Z"/><path class="cls-3" d="M98.97,48.29c-1.03,1.15-2.91,2.12-4.86,1.56-1.61-.46-3.34-1.97-3.18-3.71,.18-1.92,2.55-2.83,2.97-2.99,2.14-.82,5.41-.53,6.21,1.33,.72,1.68-1,3.65-1.14,3.8Z"/><path class="cls-9" d="M95.75,47.36c-.74,.09-1.65-.37-1.73-1.07-.07-.61,.52-1.13,1-1.33,.81-.33,1.98-.04,2.19,.66,.21,.69-.56,1.63-1.46,1.74Z"/><path class="cls-11" d="M92.78,43.67c1.93-.94,4.12-1.64,5.89-.61,1.46,.85,2.31,2.46,2.02,2.77-.4,.43-2.56-2.2-5.06-1.75-2.45,.44-3.36,3.8-4.01,3.27s-1.09-2.59,1.15-3.68Z"/></g></svg>