<?xml version="1.0" encoding="UTF-8"?><svg id="Layer_2" xmlns="http://www.w3.org/2000/svg" viewBox="0 0 870.59 870.59"><defs><style>.cls-1{fill:#9ece50;}.cls-2{fill:#86bb3d;}.cls-3{fill:#ef4444;}.cls-4{fill:#f79d9d;}.cls-5{fill:#e03231;}.cls-6{fill:#d22423;}</style></defs><g id="leaf"><path class="cls-2" d="M488.47,109.41c6.51-3.54,19.9,.71,24,9.18,7.88,16.27-25.35,33.18-33.88,76.24-1.61,8.13-4.6,25.75,2.12,45.18,10.25,29.65,36.84,44.85,33.18,50.12-1.86,2.68-10.06,.66-15.53-2.12-15.21-7.71-18.45-25.83-20.47-25.41-3.55,.73-2.12,41.06,12,100.24,11.67,48.89,17.51,73.34,31.06,97.41,14.89,26.45,38.8,56.78,31.06,66.35-3.78,4.67-9.18,4.94-9.18,4.94-5.14,0-9.12-3.54-10.59-4.94-13.48-12.83-21.08-60.38-24-64.94-10.6-16.56-9.36-14.79-20.47-60.71-2.94-12.15-10.49-43.98-19.06-85.41-11.97-57.88-11.53-89.9-16.24-90.35-3.66-.35-6.78,13.57-28.24,33.18-3.96,3.62-14.47,16.76-36.71,41.65-59.1,66.13-55.93,62.05-60,67.06-29.63,36.45-44.45,54.68-52.94,79.06-16.97,48.7-8.25,83.7-18.35,94.59-6.19,6.67-14.88,3.95-19.76-11.29-17.85-55.68,101.33-201.85,121.41-224.47,0,0,68.37-77,105.88-139.76,9.59-16.05,14.39-24.07,16.94-33.88,2.98-11.46,2.4-18.96,7.76-21.88Z"/><path class="cls-1" d="M624.93,322.31c52.9,52.15,160.49,126.54,155.42,128.27,0,0-101.12,46.81-190.06-4.68-88.94-51.49-101.12-176.02-101.12-176.02,0,0,86.75,4.12,135.76,52.43Z"/><path class="cls-2" d="M780.53,450.58c-26.53,6.62-86.27-6.23-86.27-6.23,0,0-17-6.33-76.5-39.24-49.69-27.48-106.22-103.51-123.52-127.83,0,0,82.32,82.9,118.28,108.85,35.96,25.95,95.47,52.52,95.47,52.52,0,0,61.01,13.75,72.54,11.93Z"/></g><g id="lcherry"><path class="cls-3" d="M254.82,518.82c20.12-2.49,47.16,4.47,55.76,5.65,21.61,2.97,40.15,10.5,57.18,44.47,18.19,36.29,10.62,65.75,3.53,84-5.57,14.33-18.03,56.17-60,84-46.39,30.76-100.16,27.17-136.24,13.41-30.96-11.81-49.24-31.25-52.94-35.29-22.15-24.17-29-49.85-31.76-60.71-3.13-12.29-8.66-35.14-2.12-63.53,1.5-6.51,10.25-42.05,43.06-68.47,9.37-7.54,24.43-19.37,47.29-22.59,13.67-1.93,28.46-4.01,40.94,4.24,7.48,4.94,13.19,12.97,25.41,14.82,4.67,.71,8.24,.2,9.88,0Z"/><path class="cls-4" d="M118.59,573.5c-2.78-1.93,3.41-21.66,19.06-36.71,15.57-14.97,39.01-23.86,47.29-16.94,4.66,3.89,5.65,9.18,5.65,9.18,.8,4.27-1.16,5.62,0,9.18,1.57,4.79,5.9,4.75,7.06,9.18,.7,2.67,.1,6.45-2.12,8.47-3.75,3.41-10.14-.03-22.59-2.12-1.12-.19-11.33-1.87-18.35-1.41-21.14,1.37-32.89,23.33-36,21.18Z"/><path class="cls-5" d="M323.29,529.41c13.57-7.15,56.49,27.06,55.06,61.41-.21,5.06-1.33,8.8-2.12,11.29-18.44,58.19-52.94,87.53-52.94,87.53-36.65,31.17-76.2,35.89-97.41,38.12-10.49,1.1-79.84,8.39-115.06-29.65-4.66-5.04-13.12-15.61-10.59-19.06,3.1-4.23,19.84,6.2,42.35,12,30.11,7.75,55.65,3.36,66.35,1.41,14.26-2.6,48.3-8.81,76.24-37.41,4.03-4.12,22.96-24.1,31.76-56.47,11-40.45-3.69-63.88,6.35-69.18Z"/><path class="cls-6" d="M374.72,585.27c9.32,3,5.06,72.41-26.53,111.91-3.52,4.4-8.42,9.09-9.07,10.38-6.9,13.63-26.69,31.89-55.14,42.25-29.33,10.67-54.06,10.27-69.8,8.89-12.45-1.09-30.85-2.87-51.65-13.34-29.34-14.77-51.09-40.59-48.16-45.21,2.06-3.25,15.01,6.13,39.79,13.34,10.04,2.92,41.24,11.67,76.78,5.93,40.35-6.51,67.61-28.68,76.78-36.32,51.91-43.25,58.47-100.58,67.01-97.83Z"/></g><g id="rcherry"><path class="cls-3" d="M542.83,499.13c9.23-4.19,20.82-6.65,31.16-8.24s19.56-1.87,23.74-3.03c10.03-5.03,24.85-3.62,33.81,1.62,10.26,4.13,21.53,10.77,34.05,23.73,28.2,29.2,29.79,59.57,28.47,79.11-1.03,15.34-.42,59-32.16,98.09-35.08,43.21-87.47,55.86-126,53.51-33.07-2.02-56.33-15.11-61.07-17.86-28.36-16.45-42.57-38.9-48.45-48.44-6.66-10.8-18.76-30.95-21.01-59.99-.51-6.66-2.78-43.19,20.63-78.21,6.68-10,17.53-25.78,38.38-35.69,12.47-5.92,25.96-12.33,40.34-8.19,8.61,2.48,16.46,8.44,28.68,6.55,4.66-.72,7.92-2.27,9.43-2.95Z"/><path class="cls-4" d="M429.16,592.01c-3.23-1.01-3.22-21.69,7.22-40.72,10.39-18.94,30.1-34.42,40.07-30.3,5.6,2.32,8.13,7.07,8.13,7.07,2.04,3.84,.57,5.71,2.74,8.76,2.93,4.11,7.05,2.77,9.48,6.65,1.46,2.34,2.03,6.13,.51,8.72-2.56,4.38-9.69,3-22.19,4.73-1.13,.16-11.37,1.6-17.94,4.14-19.76,7.62-24.42,32.1-28.03,30.97Z"/><path class="cls-5" d="M611.34,488.77c10.81-10.88,61.99,8.95,70.89,42.15,1.31,4.89,1.36,8.8,1.35,11.41-.21,61.04-24.37,99.35-24.37,99.35-25.66,40.7-62,57.02-81.57,65.49-9.68,4.19-73.68,31.87-118.66,6.09-5.95-3.41-17.18-10.97-15.8-15.02,1.7-4.97,20.78,0,44-1.2,31.05-1.6,54.12-13.42,63.74-18.48,12.83-6.74,43.46-22.84,61.57-58.48,2.61-5.14,14.71-29.86,13.44-63.38-1.59-41.89-22.61-59.86-14.61-67.91Z"/><path class="cls-6" d="M677.11,526.71c9.8,.08,26.47,67.59,8.13,114.73-2.04,5.25-5.32,11.19-5.56,12.61-2.51,15.07-15.94,38.41-40,56.79-24.8,18.95-48.52,25.95-63.96,29.35-12.21,2.68-30.3,6.48-53.28,2.7-32.41-5.33-60.89-23.47-59.47-28.75,.99-3.72,16.15,1.37,41.96,.84,10.46-.21,42.84-1.19,75.05-17.29,36.56-18.27,55.96-47.57,62.42-57.6,36.62-56.79,25.74-113.46,34.71-113.39Z"/></g></svg>