<?xml version="1.0" encoding="UTF-8"?><svg id="Layer_2" xmlns="http://www.w3.org/2000/svg" viewBox="0 0 240 239.76"><defs><style>.cls-1{fill:#d91d42;}.cls-2{fill:#adc671;}.cls-3{fill:#aec572;}.cls-4{fill:#f21925;}.cls-5{fill:#618137;}.cls-6{fill:#5f8139;}.cls-7{fill:#f0987d;}.cls-8{fill:#6e973b;}.cls-9{fill:#e58f5e;}</style></defs><g id="leaf"><path class="cls-8" d="M29.77,125.03c-1.05,.55-2.57,1.13-4.24,.82-1.86-.34-2.12-1.44-4.24-2-2.4-.63-3.1,.51-4.94-.24-2.28-.93-3.65-3.69-3.18-4.24,.29-.33,1.19,.24,2.59,.71,5.82,1.94,11.43-.94,12.59-1.53,.24-.12,3.3-1.71,3.06-2.47-.19-.62-2.35-.1-5.65-.35-2.48-.19-5.47-.42-8-2.24-3.36-2.41-4.55-6.64-4.12-6.94,.27-.19,.98,1.26,2.71,1.88,2.11,.75,3.63-.47,6.71-1.41,5.4-1.65,9.1-.43,9.41-1.65,.17-.68-.97-1.12-2.12-2.47-3.71-4.38-1.62-11.57-1.41-12.24,1.3-4.25,4.3-7.33,4.82-7.06,.37,.2-.84,1.92-.47,4.35,.28,1.85,1.27,2.76,3.88,5.76,4.22,4.86,5.14,6.54,5.88,6.24,.78-.32,.29-2.41,.35-4.59,.26-9.08,10.07-16.63,11.18-15.88,.37,.25-.46,1.32-.35,3.76,.09,2.18,.84,3.36,1.29,4.71,1.65,4.95-1.51,9.89-.94,10.12,.42,.17,1.32-2.93,4.12-5.88,3.04-3.21,6.55-4.38,9.29-5.29,1.35-.45,5.44-1.81,6.12-.71,.36,.6-.52,1.46-1.65,4.12-.87,2.05-1.2,3.58-1.29,3.88-.71,2.33-10.94,10.55-41.41,30.82Z"/><path class="cls-5" d="M43.36,99.66c-.37-3.37,.42-7.67,1.86-10.74,1.54-3.27,4.25-5.81,6.9-8.26,.75-.69,1.84-1.42,2.68-.85l-4.59,6.37c-1.29,1.79-2.59,3.6-3.44,5.64-.84,2.03-1.32,6.79-3.41,7.85Z"/><path class="cls-2" d="M34.38,91.43c.14,.5,.14,1.03,.24,1.54,.35,1.76,1.83,3.06,3.35,4,1.06,.66,2.21,1.25,2.99,2.22s1.05,2.51,.22,3.44c-.16,.18-.4,.33-.62,.23-.15-.07-.22-.24-.29-.39-.79-1.79-2.88-2.58-4.2-4.01-.39-.42-.71-.9-1.08-1.34-.45-.54-.98-1.02-1.41-1.58-.81-1.04-1.6-2.8-1.35-4.16s1.74-1.4,2.14,.05Z"/><path class="cls-3" d="M52.97,91.24c0-.39,0-.78-.1-1.15-.08-.3-.22-.58-.34-.86-.57-1.38-.61-2.97-.12-4.38,.1-.29,.26-.61,.56-.69,.42-.11,.78,.3,.95,.7,.24,.59,.3,1.23,.36,1.86,.22,2.47,.41,4.95,.57,7.42,.06,.92-1,1.82-1.82,1.04-.67-.63-.08-3.08-.07-3.95Z"/><path class="cls-5" d="M37.64,107.15c-.08,1.75-.13,3.61-.31,5.34-.47,4.37-3.23,8.47-5.52,12.09-.4,.63-.82,1.28-1.49,1.61-.73,.36-1.59,.25-2.4,.13-1.26-.18-2.52-.37-3.72-.79-1.04-.37-2.01-.9-3.06-1.24-1.46-.47-3.04-.54-4.5-1.02s-2.9-1.54-3.14-3.06c5.19-.06,10.34-.83,15.47-1.61,.64-.1,1.31-.2,1.85-.56s.93-1.04,.73-1.66c-.03-.11-.09-.21-.17-.29-.16-.14-.4-.14-.62-.13-4.07,.16-8.18-.62-11.91-2.26-1.5-.66-2.98-1.49-4.01-2.77s-1.53-3.08-.9-4.6c1.02,1.97,3.71,2.45,5.86,1.9s4.02-1.85,6.1-2.63,4.67-.91,6.27,.62c-4.6-5.45-5.23-12.35-2.1-18.4,.26-.5,.7-1.18,1.16-.84-.32,3.14-.59,6.53,1.03,9.23,1.08,1.8,2.87,3.06,4,4.83,1.16,1.82,1.5,4,1.4,6.13Z"/><path class="cls-6" d="M67.93,90.18c.16-.39,.32-.8,.59-1.13,.42-.52,1.04-.82,1.64-1.1,1.05-.49,2.13-.99,3.29-1.04-.09,2.08-.76,4.14-1.91,5.88-.06,.09-.12,.17-.21,.23-.14,.08-.31,.06-.46,.04-.7-.09-2.94,0-3.42-.51-.56-.6,.21-1.75,.47-2.38Z"/></g><g id="strawberry"><path id="strawberry-2" class="cls-4" d="M27.76,139.42c-2.57-7.96,1.79-19.37,5.41-20,.56-.1,1.79-.06,2.59-.94,1.11-1.23,.59-3.32,.47-4-.81-4.76,6.63-10.68,9.18-12.71,3.6-2.86,15.79-12.46,28.47-8,6.86,2.41,10.67,7.83,12.94,11.06,3.38,4.81,4.3,8.65,7.06,20,5.91,24.31,6.34,25.82,4.94,28-4.63,7.22-18.93,5.4-31.76,3.76-13.89-1.77-35.2-4.48-39.29-17.18Z"/><path id="shine" class="cls-7" d="M62,95.27c4.56-3.2,12.18,1.37,12.82,1.76,3.37,2.07,6.63,5.54,6,6.59-.56,.94-4.38,.18-7.18-1.76-2.17-1.51-1.83-2.43-3.53-3.41-4.05-2.34-9.35,.9-10-.35-.33-.63,.72-2.01,1.88-2.82Zm-28.35,48.94c3.8,3.39,8.46,4.98,10.59,5.65,.61,.19,1.35,.4,2.82,.82,3.32,.95,7.36,2.1,10.94,2.94,4.08,.96,12.09,2.84,12.59,1.53,.27-.71-1.77-2.08-2-2.24-3.57-2.37-6.51-1.01-11.18-1.53-1.08-.12-9.67-1.2-14.24-7.18-1.75-2.3-2.02-4.15-4-4.71-2.72-.76-6.53,1.55-6.47,3.29,.02,.54,.4,.93,.94,1.41Zm18.35-17.53c-.09,1.28-.92,1.58-1.53,2.94-1.18,2.64,.17,5.4,.24,5.53,.86,1.69,2.59,3.07,3.29,2.71,.65-.33,.02-1.93,.82-2.47,.57-.38,2.7-.97,3.06,.82,1.46,7.33,3.17,7.08,5.18,1.76,.58-1.53,2.34-2.93,2.47-4.47,.19-2.16-.85-2.94-.24-4.59,.36-.96,1.28-2.22,2.47-2.35,2.03-.22,3.61,2.99,4.35,2.59,.42-.23-.13-1.24,.12-2.94,.33-2.32,.55-3.01,1.53-4,3.13-3.16,3.16-3.9-3.88-4.12-2.41-.07-1.47-2.84-2.47-3.06-1.51-.33-2.63,1.6-4,1.06-.92-.36-1.2-1.53-1.65-1.41-.46,.12-.27,1.39-.71,1.53-.53,.17-1.14-1.58-2.59-2.82-1.98-1.71-4.77-1.82-4.94-1.41-.22,.52,3.88,1.85,3.76,3.76-.06,1.04-1.35,2.11-2.47,2.12-.98,0-1.22-.81-1.88-.71-1.36,.21-2.79,3.98-1.76,6.94,.38,1.09,.9,1.53,.82,2.59Zm20.35,19.76c-.06,1.96,5.14,.97,5.53,3.18,.75,4.27,1.56,6.12,3.18-.94,.61-2.67,2.74-1.39,3.65-1.29,1.59,.17,2.95,1.74,3.53,3.06,.66,1.49,.18,2.31,.94,2.94,.89,.74,2.72,.59,3.41-.35,.58-.79-.26-1.75-.59-3.65-.66-3.77-1.42-5.05-2.94-4-1.19,.82-2.24,1.09-3.29,.59-1-.47-1.22-2.18-1.18-3.18,.1-2.23,1.67-3.78,1.41-4-.26-.22-1.43,1.58-2.71,1.41-1.8-.23-2.69-4.23-3.06-4.12-.29,.09,.69,2.41-.35,3.76-.6,.77-1.97,2.1-2.59,1.06-2.18-3.7-4.78,.18-4.94,5.53Z"/><path id="seeds-dark" class="cls-1" d="M49.5,109.3c-1.13,.12-2.29-1.39-2.57-2.75-.02-.09-.42-2.17,.76-2.91,1.09-.68,2.93,.13,3.57,1.43,.84,1.69-.43,4.1-1.76,4.24Zm34.37,7.53c-.64-1.29-2.49-2.11-3.57-1.43-1.18,.74-.78,2.82-.76,2.91,.28,1.36,1.44,2.87,2.57,2.75,1.33-.14,2.6-2.55,1.76-4.24Zm-9.65-3.55c-.64-1.29-2.49-2.11-3.57-1.43-1.18,.74-.78,2.82-.76,2.91,.28,1.36,1.44,2.87,2.57,2.75,1.33-.14,2.6-2.55,1.76-4.24Zm-23.05,.77c-.64-1.29-2.49-2.11-3.57-1.43-1.18,.74-.78,2.82-.76,2.91,.28,1.36,1.44,2.87,2.57,2.75,1.33-.14,2.6-2.55,1.76-4.24Zm-6.7,4.14c-1.04-1-3.05-1.15-3.84-.14-.86,1.09,.21,2.91,.26,2.99,.72,1.19,2.32,2.22,3.35,1.73,1.21-.58,1.59-3.27,.23-4.58Zm12.51,3.42c-.64-1.29-2.49-2.11-3.57-1.43-1.18,.74-.78,2.82-.76,2.91,.28,1.36,1.44,2.87,2.57,2.75,1.33-.14,2.6-2.55,1.76-4.24Zm9.47-1.21c-.64-1.29-2.49-2.11-3.57-1.43-1.18,.74-.78,2.82-.76,2.91,.28,1.36,1.44,2.87,2.57,2.75,1.33-.14,2.6-2.55,1.76-4.24Zm21.43,3.03c-.64-1.29-2.49-2.11-3.57-1.43-1.18,.74-.78,2.82-.76,2.91,.28,1.36,1.44,2.87,2.57,2.75,1.33-.14,2.6-2.55,1.76-4.24Zm-10.51,2.9c-.64-1.29-2.49-2.11-3.57-1.43-1.18,.74-.78,2.82-.76,2.91,.28,1.36,1.44,2.87,2.57,2.75,1.33-.14,2.6-2.55,1.76-4.24Zm-6.46,3.55c-.64-1.29-2.49-2.11-3.57-1.43-1.18,.74-.78,2.82-.76,2.91,.28,1.36,1.44,2.87,2.57,2.75,1.33-.14,2.6-2.55,1.76-4.24Zm-8.13,3.62c-.64-1.29-2.49-2.11-3.57-1.43-1.18,.74-.78,2.82-.76,2.91,.28,1.36,1.44,2.87,2.57,2.75,1.33-.14,2.6-2.55,1.76-4.24Zm4.73-22.42c-.64-1.29-2.49-2.11-3.57-1.43-1.18,.74-.78,2.82-.76,2.91,.28,1.36,1.44,2.87,2.57,2.75,1.33-.14,2.6-2.55,1.76-4.24Zm-7.07-2.96c-.64-1.29-2.49-2.11-3.57-1.43-1.18,.74-.78,2.82-.76,2.91,.28,1.36,1.44,2.87,2.57,2.75,1.33-.14,2.6-2.55,1.76-4.24Zm3.66-7.38c-.64-1.29-2.49-2.11-3.57-1.43-1.18,.74-.78,2.82-.76,2.91,.28,1.36,1.44,2.87,2.57,2.75,1.33-.14,2.6-2.55,1.76-4.24Zm12.2,4.56c-.64-1.29-2.49-2.11-3.57-1.43-1.18,.74-.78,2.82-.76,2.91,.28,1.36,1.44,2.87,2.57,2.75,1.33-.14,2.6-2.55,1.76-4.24Zm12.37,2.96c-.64-1.29-2.49-2.11-3.57-1.43-1.18,.74-.78,2.82-.76,2.91,.28,1.36,1.44,2.87,2.57,2.75,1.33-.14,2.6-2.55,1.76-4.24Zm-39.44,19.93c-.64-1.29-2.49-2.11-3.57-1.43-1.18,.74-.78,2.82-.76,2.91,.28,1.36,1.44,2.87,2.57,2.75,1.33-.14,2.6-2.55,1.76-4.24Zm6.71,2.35c-.64-1.29-2.49-2.11-3.57-1.43-1.18,.74-.78,2.82-.76,2.91,.28,1.36,1.44,2.87,2.57,2.75,1.33-.14,2.6-2.55,1.76-4.24Zm30.05,3.72c-.64-1.29-2.49-2.11-3.57-1.43-1.18,.74-.78,2.82-.76,2.91,.28,1.36,1.44,2.87,2.57,2.75,1.33-.14,2.6-2.55,1.76-4.24Zm-7.35,1.01c-.64-1.29-2.49-2.11-3.57-1.43-1.18,.74-.78,2.82-.76,2.91,.28,1.36,1.44,2.87,2.57,2.75,1.33-.14,2.6-2.55,1.76-4.24Zm-6.93,4.09c-.64-1.29-2.49-2.11-3.57-1.43-1.18,.74-.78,2.82-.76,2.91,.28,1.36,1.44,2.87,2.57,2.75,1.33-.14,2.6-2.55,1.76-4.24Zm8.75,5.43c-.64-1.29-2.49-2.11-3.57-1.43-1.18,.74-.78,2.82-.76,2.91,.28,1.36,1.44,2.87,2.57,2.75,1.33-.14,2.6-2.55,1.76-4.24Zm9.75-3.97c-.64-1.29-2.49-2.11-3.57-1.43-1.18,.74-.78,2.82-.76,2.91,.28,1.36,1.44,2.87,2.57,2.75,1.33-.14,2.6-2.55,1.76-4.24Zm6.83,5.02c-.64-1.29-2.49-2.11-3.57-1.43-1.18,.74-.78,2.82-.76,2.91,.28,1.36,1.44,2.87,2.57,2.75,1.33-.14,2.6-2.55,1.76-4.24Zm-10.21,4.39c-.64-1.29-2.49-2.11-3.57-1.43-1.18,.74-.78,2.82-.76,2.91,.28,1.36,1.44,2.87,2.57,2.75,1.33-.14,2.6-2.55,1.76-4.24Zm-12.62,0c-.64-1.29-2.49-2.11-3.57-1.43-1.18,.74-.78,2.82-.76,2.91,.28,1.36,1.44,2.87,2.57,2.75,1.33-.14,2.6-2.55,1.76-4.24Zm-34.45-15.96c-.64-1.29-2.49-2.11-3.57-1.43-1.18,.74-.78,2.82-.76,2.91,.28,1.36,1.44,2.87,2.57,2.75,1.33-.14,2.6-2.55,1.76-4.24Zm11.81,4.63c-.64-1.29-2.49-2.11-3.57-1.43-1.18,.74-.78,2.82-.76,2.91,.28,1.36,1.44,2.87,2.57,2.75,1.33-.14,2.6-2.55,1.76-4.24Zm6.46,5.72c-.64-1.29-2.49-2.11-3.57-1.43-1.18,.74-.78,2.82-.76,2.91,.28,1.36,1.44,2.87,2.57,2.75,1.33-.14,2.6-2.55,1.76-4.24Zm9.48,2.14c-.64-1.29-2.49-2.11-3.57-1.43-1.18,.74-.78,2.82-.76,2.91,.28,1.36,1.44,2.87,2.57,2.75,1.33-.14,2.6-2.55,1.76-4.24Zm-27.5-21.54c-.64-1.29-2.49-2.11-3.57-1.43-1.18,.74-.78,2.82-.76,2.91,.28,1.36,1.44,2.87,2.57,2.75,1.33-.14,2.6-2.55,1.76-4.24Zm-7.45,13.21c-1.12-.75-3-.63-3.57,.36-.61,1.07,.68,2.54,.74,2.6,.86,.96,2.51,1.66,3.37,1.1,1.02-.66,.93-3.09-.54-4.07Zm44.35-39.16c-.57-1.1-2.13-1.83-3.02-1.29-.96,.59-.57,2.33-.55,2.41,.27,1.15,1.28,2.44,2.22,2.37,1.11-.08,2.1-2.06,1.35-3.49Z"/><path id="seeds" class="cls-9" d="M48.23,104.81s.29-.41,.68-.4c.71,.02,1.44,1.38,1.2,2.54-.03,.12-.2,.95-.6,1-.69,.08-1.96-2.16-1.27-3.15Zm10.74,6.13c.4-.05,.58-.88,.6-1,.25-1.16-.49-2.52-1.2-2.54-.39-.01-.67,.38-.68,.4-.69,.99,.58,3.23,1.27,3.15Zm6.71,2.62c.4-.05,.58-.88,.6-1,.25-1.16-.49-2.52-1.2-2.54-.39-.01-.67,.38-.68,.4-.69,.99,.58,3.23,1.27,3.15Zm-10.33,11.08c.4-.05,.58-.88,.6-1,.25-1.16-.49-2.52-1.2-2.54-.39-.01-.67,.38-.68,.4-.69,.99,.58,3.23,1.27,3.15Zm-5.85-7.53c.4-.05,.58-.88,.6-1,.25-1.16-.49-2.52-1.2-2.54-.39-.01-.67,.38-.68,.4-.69,.99,.58,3.23,1.27,3.15Zm25.14-8.74c.4-.05,.58-.88,.6-1,.25-1.16-.49-2.52-1.2-2.54-.39-.01-.67,.38-.68,.4-.69,.99,.58,3.23,1.27,3.15Zm-30.38,13.05c.3-.27-.04-1.05-.09-1.17-.47-1.09-1.86-1.77-2.45-1.38-.32,.21-.33,.69-.32,.72,0,1.21,2.35,2.3,2.86,1.83Zm42.75-10.47c.4-.05,.58-.88,.6-1,.25-1.16-.49-2.52-1.2-2.54-.39-.01-.67,.38-.68,.4-.69,.99,.58,3.23,1.27,3.15Zm-.91,14.9c.31-.04,.44-.66,.46-.75,.19-.87-.37-1.89-.91-1.91-.29,0-.51,.28-.52,.3-.53,.74,.44,2.43,.97,2.37Zm-13.59-9.5c.4-.05,.58-.88,.6-1,.25-1.16-.49-2.52-1.2-2.54-.39-.01-.67,.38-.68,.4-.69,.99,.58,3.23,1.27,3.15Zm-34.41,11.84c.4-.05,.58-.88,.6-1,.25-1.16-.49-2.52-1.2-2.54-.39-.01-.67,.38-.68,.4-.69,.99,.58,3.23,1.27,3.15Zm9.47,2.99c.4-.05,.58-.88,.6-1,.25-1.16-.49-2.52-1.2-2.54-.39-.01-.67,.38-.68,.4-.69,.99,.58,3.23,1.27,3.15Zm6.71,2.62c.4-.05,.58-.88,.6-1,.25-1.16-.49-2.52-1.2-2.54-.39-.01-.67,.38-.68,.4-.69,.99,.58,3.23,1.27,3.15Zm-4.59,8.33c.4-.05,.58-.88,.6-1,.25-1.16-.49-2.52-1.2-2.54-.39-.01-.67,.38-.68,.4-.69,.99,.58,3.23,1.27,3.15Zm-11.59-4.78c.4-.05,.58-.88,.6-1,.25-1.16-.49-2.52-1.2-2.54-.39-.01-.67,.38-.68,.4-.69,.99,.58,3.23,1.27,3.15Zm26.2-14.03c.4-.05,.58-.88,.6-1,.25-1.16-.49-2.52-1.2-2.54-.39-.01-.67,.38-.68,.4-.69,.99,.58,3.23,1.27,3.15Zm-31.44,18.34c.3-.27-.04-1.05-.09-1.17-.47-1.09-1.86-1.77-2.45-1.38-.32,.21-.33,.69-.32,.72,0,1.21,2.35,2.3,2.86,1.83Zm42.75-12.76c.4-.05,.58-.88,.6-1,.25-1.16-.49-2.52-1.2-2.54-.39-.01-.67,.38-.68,.4-.69,.99,.58,3.23,1.27,3.15Zm-5.66,13.98c.31-.04,.44-.66,.46-.75,.19-.87-.37-1.89-.91-1.91-.29,0-.51,.28-.52,.3-.53,.74,.44,2.43,.97,2.37Zm-8.84-6.29c.4-.05,.58-.88,.6-1,.25-1.16-.49-2.52-1.2-2.54-.39-.01-.67,.38-.68,.4-.69,.99,.58,3.23,1.27,3.15Zm23.21,.77c.4-.05,.58-.88,.6-1,.25-1.16-.49-2.52-1.2-2.54-.39-.01-.67,.38-.68,.4-.69,.99,.58,3.23,1.27,3.15Zm-27.96,10.36c.4-.05,.58-.88,.6-1,.25-1.16-.49-2.52-1.2-2.54-.39-.01-.67,.38-.68,.4-.69,.99,.58,3.23,1.27,3.15Zm9.47,2.99c.4-.05,.58-.88,.6-1,.25-1.16-.49-2.52-1.2-2.54-.39-.01-.67,.38-.68,.4-.69,.99,.58,3.23,1.27,3.15Zm6.71,2.62c.4-.05,.58-.88,.6-1,.25-1.16-.49-2.52-1.2-2.54-.39-.01-.67,.38-.68,.4-.69,.99,.58,3.23,1.27,3.15Zm4.12-14.95c.4-.05,.58-.88,.6-1,.25-1.16-.49-2.52-1.2-2.54-.39-.01-.67,.38-.68,.4-.69,.99,.58,3.23,1.27,3.15Zm-1.06-36.85c.4-.05,.58-.88,.6-1,.25-1.16-.49-2.52-1.2-2.54-.39-.01-.67,.38-.68,.4-.69,.99,.58,3.23,1.27,3.15Zm3.19,46.2c.4-.05,.58-.88,.6-1,.25-1.16-.49-2.52-1.2-2.54-.39-.01-.67,.38-.68,.4-.69,.99,.58,3.23,1.27,3.15Zm16.58,.37c.4-.05,.58-.88,.6-1,.25-1.16-.49-2.52-1.2-2.54-.39-.01-.67,.38-.68,.4-.69,.99,.58,3.23,1.27,3.15Zm-32.14-44.8c.4-.05,.58-.88,.6-1,.25-1.16-.49-2.52-1.2-2.54-.39-.01-.67,.38-.68,.4-.69,.99,.58,3.23,1.27,3.15Zm18.96,16.63c.4-.05,.58-.88,.6-1,.25-1.16-.49-2.52-1.2-2.54-.39-.01-.67,.38-.68,.4-.69,.99,.58,3.23,1.27,3.15Zm-12.96,13.14c.4-.05,.58-.88,.6-1,.25-1.16-.49-2.52-1.2-2.54-.39-.01-.67,.38-.68,.4-.69,.99,.58,3.23,1.27,3.15Zm16.15,20.26c.4-.05,.58-.88,.6-1,.25-1.16-.49-2.52-1.2-2.54-.39-.01-.67,.38-.68,.4-.69,.99,.58,3.23,1.27,3.15Zm2.68-9.41c.4-.05,.58-.88,.6-1,.25-1.16-.49-2.52-1.2-2.54-.39-.01-.67,.38-.68,.4-.69,.99,.58,3.23,1.27,3.15Z"/></g><g id="leaf-2"><path class="cls-8" d="M129.46,78.51c-.12-.39-.55-2.37-1.67-5.02-1.45-3.44-2.6-4.56-2.13-5.32,.88-1.43,6.16,.33,7.91,.91,3.55,1.18,8.09,2.7,12.02,6.85,3.62,3.82,4.78,7.82,5.32,7.61,.73-.29-3.36-6.68-1.22-13.08,.58-1.74,1.55-3.26,1.67-6.09,.14-3.16-.94-4.54-.46-4.87,1.42-.97,14.11,8.79,14.45,20.54,.08,2.82-.55,5.52,.46,5.93,.96,.39,2.16-1.78,7.61-8.06,3.37-3.89,4.66-5.06,5.02-7.45,.47-3.14-1.09-5.38-.61-5.63,.68-.36,4.56,3.63,6.24,9.13,.26,.86,2.97,10.15-1.83,15.82-1.48,1.75-2.96,2.31-2.74,3.19,.4,1.58,5.19,0,12.17,2.13,3.98,1.21,5.95,2.8,8.67,1.83,2.23-.8,3.15-2.67,3.5-2.43,.57,.39-.98,5.86-5.32,8.98-3.27,2.34-7.13,2.64-10.34,2.89-4.26,.33-7.05-.34-7.3,.46-.31,.99,3.64,3.04,3.96,3.19,1.5,.77,8.76,4.48,16.28,1.98,1.81-.6,2.97-1.34,3.35-.91,.62,.71-1.16,4.28-4.11,5.48-2.38,.97-3.29-.52-6.39,.3-2.74,.72-3.07,2.15-5.48,2.59-2.16,.39-4.12-.35-5.48-1.06-39.41-26.22-52.63-36.85-53.55-39.86Z"/><path class="cls-5" d="M161.02,75.42c-1.09-2.64-2.78-4.98-4.45-7.29l-5.93-8.23c1.09-.73,2.5,.21,3.47,1.11,3.43,3.17,6.94,6.45,8.92,10.68,1.86,3.96,2.88,9.53,2.4,13.88-2.7-1.37-3.32-7.52-4.41-10.15Z"/><path class="cls-2" d="M179.82,74.86c.32,1.75-.71,4.04-1.75,5.38-.56,.72-1.24,1.34-1.82,2.04-.48,.57-.89,1.18-1.39,1.73-1.71,1.86-4.41,2.88-5.43,5.19-.09,.2-.18,.42-.37,.51-.28,.13-.59-.07-.8-.3-1.07-1.21-.72-3.18,.28-4.44s2.5-2.02,3.87-2.87c1.96-1.22,3.88-2.9,4.33-5.18,.13-.66,.13-1.35,.31-1.99,.52-1.88,2.43-1.89,2.77-.07Z"/><path class="cls-3" d="M152.92,79.78c-1.07,1.01-2.43-.15-2.36-1.34,.21-3.2,.45-6.4,.74-9.6,.07-.82,.15-1.65,.47-2.41,.21-.51,.69-1.05,1.23-.91,.39,.1,.59,.52,.73,.89,.64,1.82,.59,3.88-.15,5.66-.15,.37-.33,.73-.44,1.12-.13,.48-.13,.99-.12,1.48,.01,1.12,.78,4.28-.09,5.1Z"/><path class="cls-5" d="M174.63,87.32c1.46-2.28,3.78-3.92,5.18-6.24,2.1-3.5,1.75-7.88,1.33-11.94,.58-.43,1.16,.45,1.49,1.09,4.06,7.82,3.24,16.75-2.71,23.79,2.06-1.99,5.42-1.81,8.1-.8,2.68,1.01,5.11,2.69,7.88,3.4s6.25,.08,7.57-2.46c.81,1.96,.16,4.3-1.17,5.95s-3.24,2.73-5.18,3.58c-4.82,2.13-10.14,3.14-15.41,2.92-.28-.01-.58-.02-.8,.16-.11,.1-.18,.23-.23,.37-.26,.8,.24,1.69,.94,2.15s1.56,.6,2.39,.73c6.63,1.01,13.29,2.01,20,2.08-.31,1.96-2.17,3.34-4.06,3.96-1.89,.62-3.92,.71-5.82,1.32-1.36,.44-2.61,1.13-3.96,1.61-1.55,.55-3.19,.79-4.81,1.03-1.04,.15-2.16,.29-3.1-.17-.86-.42-1.41-1.27-1.92-2.08-2.96-4.68-6.53-9.98-7.14-15.63-.24-2.23-.3-4.64-.41-6.9-.13-2.74,.3-5.57,1.81-7.92Z"/><path class="cls-6" d="M134.27,76.37c-.62,.66-3.51,.54-4.42,.65-.2,.03-.42,.05-.6-.06-.11-.07-.19-.18-.27-.29-1.49-2.25-2.36-4.91-2.47-7.6,1.5,.06,2.9,.71,4.26,1.35,.78,.36,1.59,.75,2.12,1.42,.35,.43,.56,.95,.76,1.46,.33,.81,1.33,2.29,.61,3.07Z"/></g><g id="bstrawberry"><path id="strawberry-3" class="cls-4" d="M185.6,136.97c3.32-10.29-2.31-25.04-7-25.86-.73-.13-2.31-.07-3.35-1.22-1.44-1.59-.76-4.3-.61-5.17,1.05-6.16-8.57-13.81-11.87-16.43-4.65-3.7-20.42-16.11-36.82-10.34-8.87,3.12-13.79,10.12-16.73,14.3-4.37,6.22-5.56,11.18-9.13,25.86-7.64,31.43-8.2,33.39-6.39,36.21,5.99,9.34,24.48,6.98,41.08,4.87,17.96-2.29,45.52-5.8,50.81-22.21Z"/><path id="shine-2" class="cls-7" d="M143.76,83.53c-.85,1.62-7.69-2.58-12.93,.46-2.2,1.27-1.75,2.45-4.56,4.41-3.61,2.52-8.55,3.49-9.28,2.28-.82-1.35,3.4-5.84,7.76-8.52,.84-.52,10.68-6.42,16.58-2.28,1.5,1.05,2.86,2.84,2.43,3.65Zm35.45,57.81c.08-2.26-4.85-5.24-8.37-4.26-2.56,.71-2.9,3.11-5.17,6.09-5.9,7.73-17.01,9.12-18.41,9.28-6.04,.68-9.83-1.09-14.45,1.98-.3,.2-2.94,1.97-2.59,2.89,.65,1.7,11-.74,16.28-1.98,4.63-1.09,9.85-2.58,14.15-3.8,1.91-.54,2.86-.82,3.65-1.06,2.76-.87,8.78-2.91,13.69-7.3,.7-.62,1.19-1.13,1.22-1.83Zm-23.88-24.19c1.32-3.84-.52-8.7-2.28-8.98-.86-.13-1.17,.92-2.43,.91-1.45,0-3.12-1.4-3.19-2.74-.15-2.48,5.15-4.19,4.87-4.87-.22-.53-3.82-.39-6.39,1.83-1.87,1.61-2.66,3.87-3.35,3.65-.56-.18-.31-1.82-.91-1.98-.58-.16-.94,1.36-2.13,1.83-1.78,.7-3.22-1.79-5.17-1.37-1.3,.28-.07,3.86-3.19,3.96-9.1,.28-9.07,1.23-5.02,5.32,1.27,1.28,1.55,2.17,1.98,5.17,.32,2.19-.4,3.51,.15,3.8,.96,.52,3-3.63,5.63-3.35,1.54,.17,2.73,1.8,3.19,3.04,.79,2.13-.55,3.14-.3,5.93,.17,1.99,2.45,3.8,3.19,5.78,2.59,6.88,4.8,7.2,6.69-2.28,.46-2.32,3.22-1.56,3.96-1.06,1.04,.7,.22,2.76,1.06,3.19,.91,.47,3.15-1.31,4.26-3.5,.09-.17,1.83-3.74,.3-7.15-.79-1.76-1.86-2.15-1.98-3.8-.09-1.36,.58-1.94,1.06-3.35Zm-33.77,21.75c-.8,1.35-2.58-.37-3.35-1.37-1.36-1.75-.08-4.75-.46-4.87-.48-.15-1.63,5.02-3.96,5.32-1.65,.21-3.17-2.11-3.5-1.83-.34,.28,1.69,2.29,1.83,5.17,.06,1.28-.23,3.49-1.52,4.11-1.37,.65-2.72,.31-4.26-.76-1.97-1.36-2.95,.29-3.8,5.17-.43,2.45-1.51,3.69-.76,4.72,.89,1.22,3.26,1.42,4.41,.46,.98-.82,.37-1.88,1.22-3.8,.76-1.71,2.51-3.74,4.56-3.96,1.17-.12,3.93-1.77,4.72,1.67,2.09,9.13,3.13,6.74,4.11,1.22,.5-2.85,7.23-1.57,7.15-4.11-.21-6.92-3.57-11.93-6.39-7.15Z"/><path id="seeds-dark-2" class="cls-1" d="M155.21,92.55c.83-1.67,3.22-2.73,4.62-1.84,1.52,.96,1.01,3.64,.98,3.76-.36,1.76-1.86,3.71-3.32,3.56-1.73-.18-3.36-3.3-2.28-5.48Zm-39.89,20.7c1.46,.15,2.96-1.8,3.32-3.56,.02-.12,.54-2.8-.98-3.76-1.4-.88-3.79,.17-4.62,1.84-1.08,2.18,.55,5.3,2.28,5.48Zm12.48-4.59c1.46,.15,2.96-1.8,3.32-3.56,.02-.12,.54-2.8-.98-3.76-1.4-.88-3.79,.17-4.62,1.84-1.08,2.18,.55,5.3,2.28,5.48Zm29.81,.99c1.46,.15,2.96-1.8,3.32-3.56,.02-.12,.54-2.8-.98-3.76-1.4-.88-3.79,.17-4.62,1.84-1.08,2.18,.55,5.3,2.28,5.48Zm6.69,5.8c1.32,.63,3.39-.7,4.33-2.24,.06-.1,1.45-2.46,.34-3.87-1.03-1.3-3.63-1.11-4.97,.18-1.75,1.69-1.26,5.18,.3,5.93Zm-14.2,3.98c1.46,.15,2.96-1.8,3.32-3.56,.02-.12,.54-2.8-.98-3.76-1.4-.88-3.79,.17-4.62,1.84-1.08,2.18,.55,5.3,2.28,5.48Zm-12.24-1.57c1.46,.15,2.96-1.8,3.32-3.56,.02-.12,.54-2.8-.98-3.76-1.4-.88-3.79,.17-4.62,1.84-1.08,2.18,.55,5.3,2.28,5.48Zm-27.72,3.92c1.46,.15,2.96-1.8,3.32-3.56,.02-.12,.54-2.8-.98-3.76-1.4-.88-3.79,.17-4.62,1.84-1.08,2.18,.55,5.3,2.28,5.48Zm13.59,3.76c1.46,.15,2.96-1.8,3.32-3.56,.02-.12,.54-2.8-.98-3.76-1.4-.88-3.79,.17-4.62,1.84-1.08,2.18,.55,5.3,2.28,5.48Zm8.35,4.59c1.46,.15,2.96-1.8,3.32-3.56,.02-.12,.54-2.8-.98-3.76-1.4-.88-3.79,.17-4.62,1.84-1.08,2.18,.55,5.3,2.28,5.48Zm10.51,4.69c1.46,.15,2.96-1.8,3.32-3.56,.02-.12,.54-2.8-.98-3.76-1.4-.88-3.79,.17-4.62,1.84-1.08,2.18,.55,5.3,2.28,5.48Zm-6.12-28.99c1.46,.15,2.96-1.8,3.32-3.56,.02-.12,.54-2.8-.98-3.76-1.4-.88-3.79,.17-4.62,1.84-1.08,2.18,.55,5.3,2.28,5.48Zm9.15-3.83c1.46,.15,2.96-1.8,3.32-3.56,.02-.12,.54-2.8-.98-3.76-1.4-.88-3.79,.17-4.62,1.84-1.08,2.18,.55,5.3,2.28,5.48Zm-4.73-9.55c1.46,.15,2.96-1.8,3.32-3.56,.02-.12,.54-2.8-.98-3.76-1.4-.88-3.79,.17-4.62,1.84-1.08,2.18,.55,5.3,2.28,5.48Zm-15.78,5.9c1.46,.15,2.96-1.8,3.32-3.56,.02-.12,.54-2.8-.98-3.76-1.4-.88-3.79,.17-4.62,1.84-1.08,2.18,.55,5.3,2.28,5.48Zm-15.99,3.83c1.46,.15,2.96-1.8,3.32-3.56,.02-.12,.54-2.8-.98-3.76-1.4-.88-3.79,.17-4.62,1.84-1.08,2.18,.55,5.3,2.28,5.48Zm51,25.77c1.46,.15,2.96-1.8,3.32-3.56,.02-.12,.54-2.8-.98-3.76-1.4-.88-3.79,.17-4.62,1.84-1.08,2.18,.55,5.3,2.28,5.48Zm-8.68,3.04c1.46,.15,2.96-1.8,3.32-3.56,.02-.12,.54-2.8-.98-3.76-1.4-.88-3.79,.17-4.62,1.84-1.08,2.18,.55,5.3,2.28,5.48Zm-38.86,4.81c1.46,.15,2.96-1.8,3.32-3.56,.02-.12,.54-2.8-.98-3.76-1.4-.88-3.79,.17-4.62,1.84-1.08,2.18,.55,5.3,2.28,5.48Zm9.5,1.3c1.46,.15,2.96-1.8,3.32-3.56,.02-.12,.54-2.8-.98-3.76-1.4-.88-3.79,.17-4.62,1.84-1.08,2.18,.55,5.3,2.28,5.48Zm8.96,5.29c1.46,.15,2.96-1.8,3.32-3.56,.02-.12,.54-2.8-.98-3.76-1.4-.88-3.79,.17-4.62,1.84-1.08,2.18,.55,5.3,2.28,5.48Zm-11.31,7.02c1.46,.15,2.96-1.8,3.32-3.56,.02-.12,.54-2.8-.98-3.76-1.4-.88-3.79,.17-4.62,1.84-1.08,2.18,.55,5.3,2.28,5.48Zm-12.61-5.14c1.46,.15,2.96-1.8,3.32-3.56,.02-.12,.54-2.8-.98-3.76-1.4-.88-3.79,.17-4.62,1.84-1.08,2.18,.55,5.3,2.28,5.48Zm-8.83,6.49c1.46,.15,2.96-1.8,3.32-3.56,.02-.12,.54-2.8-.98-3.76-1.4-.88-3.79,.17-4.62,1.84-1.08,2.18,.55,5.3,2.28,5.48Zm13.2,5.68c1.46,.15,2.96-1.8,3.32-3.56,.02-.12,.54-2.8-.98-3.76-1.4-.88-3.79,.17-4.62,1.84-1.08,2.18,.55,5.3,2.28,5.48Zm16.32,0c1.46,.15,2.96-1.8,3.32-3.56,.02-.12,.54-2.8-.98-3.76-1.4-.88-3.79,.17-4.62,1.84-1.08,2.18,.55,5.3,2.28,5.48Zm44.55-20.63c1.46,.15,2.96-1.8,3.32-3.56,.02-.12,.54-2.8-.98-3.76-1.4-.88-3.79,.17-4.62,1.84-1.08,2.18,.55,5.3,2.28,5.48Zm-15.27,5.99c1.46,.15,2.96-1.8,3.32-3.56,.02-.12,.54-2.8-.98-3.76-1.4-.88-3.79,.17-4.62,1.84-1.08,2.18,.55,5.3,2.28,5.48Zm-8.36,7.4c1.46,.15,2.96-1.8,3.32-3.56,.02-.12,.54-2.8-.98-3.76-1.4-.88-3.79,.17-4.62,1.84-1.08,2.18,.55,5.3,2.28,5.48Zm-12.26,2.77c1.46,.15,2.96-1.8,3.32-3.56,.02-.12,.54-2.8-.98-3.76-1.4-.88-3.79,.17-4.62,1.84-1.08,2.18,.55,5.3,2.28,5.48Zm35.56-27.85c1.46,.15,2.96-1.8,3.32-3.56,.02-.12,.54-2.8-.98-3.76-1.4-.88-3.79,.17-4.62,1.84-1.08,2.18,.55,5.3,2.28,5.48Zm6.67,16.86c1.12,.73,3.24-.18,4.36-1.42,.08-.08,1.75-1.98,.95-3.37-.73-1.28-3.16-1.44-4.62-.47-1.89,1.27-2.01,4.4-.69,5.26Zm-54.91-51.38c1.21,.09,2.52-1.58,2.87-3.07,.02-.1,.53-2.36-.71-3.11-1.15-.7-3.17,.25-3.91,1.67-.96,1.85,.31,4.41,1.75,4.51Z"/><path id="seeds-2" class="cls-9" d="M157.49,96.3c-.52-.06-.75-1.14-.78-1.3-.32-1.5,.63-3.26,1.55-3.29,.5-.02,.86,.49,.88,.51,.9,1.28-.75,4.18-1.64,4.07Zm-10.6-.21s-.38-.53-.88-.51c-.92,.03-1.86,1.78-1.55,3.29,.03,.16,.26,1.23,.78,1.3,.89,.11,2.54-2.79,1.64-4.07Zm-8.68,3.38s-.38-.53-.88-.51c-.92,.03-1.86,1.78-1.55,3.29,.03,.16,.26,1.23,.78,1.3,.89,.11,2.54-2.79,1.64-4.07Zm13.36,14.32s-.38-.53-.88-.51c-.92,.03-1.86,1.78-1.55,3.29,.03,.16,.26,1.23,.78,1.3,.89,.11,2.54-2.79,1.64-4.07Zm7.56-9.74s-.38-.53-.88-.51c-.92,.03-1.86,1.78-1.55,3.29,.03,.16,.26,1.23,.78,1.3,.89,.11,2.54-2.79,1.64-4.07Zm-32.51-11.3s-.38-.53-.88-.51c-.92,.03-1.86,1.78-1.55,3.29,.03,.16,.26,1.23,.78,1.3,.89,.11,2.54-2.79,1.64-4.07Zm41.34,18.58s0-.65-.42-.93c-.76-.51-2.55,.37-3.16,1.78-.06,.15-.5,1.16-.11,1.51,.67,.6,3.69-.8,3.7-2.37Zm-57.33-15.25s-.38-.53-.88-.51c-.92,.03-1.86,1.78-1.55,3.29,.03,.16,.26,1.23,.78,1.3,.89,.11,2.54-2.79,1.64-4.07Zm.78,20.27s-.29-.4-.67-.38c-.7,.02-1.42,1.34-1.18,2.47,.03,.12,.2,.93,.59,.98,.68,.08,1.93-2.1,1.25-3.06Zm17.96-13.29s-.38-.53-.88-.51c-.92,.03-1.86,1.78-1.55,3.29,.03,.16,.26,1.23,.78,1.3,.89,.11,2.54-2.79,1.64-4.07Zm44.5,15.31s-.38-.53-.88-.51c-.92,.03-1.86,1.78-1.55,3.29,.03,.16,.26,1.23,.78,1.3,.89,.11,2.54-2.79,1.64-4.07Zm-12.24,3.86s-.38-.53-.88-.51c-.92,.03-1.86,1.78-1.55,3.29,.03,.16,.26,1.23,.78,1.3,.89,.11,2.54-2.79,1.64-4.07Zm-8.68,3.38s-.38-.53-.88-.51c-.92,.03-1.86,1.78-1.55,3.29,.03,.16,.26,1.23,.78,1.3,.89,.11,2.54-2.79,1.64-4.07Zm5.93,10.77s-.38-.53-.88-.51c-.92,.03-1.86,1.78-1.55,3.29,.03,.16,.26,1.23,.78,1.3,.89,.11,2.54-2.79,1.64-4.07Zm14.99-6.18s-.38-.53-.88-.51c-.92,.03-1.86,1.78-1.55,3.29,.03,.16,.26,1.23,.78,1.3,.89,.11,2.54-2.79,1.64-4.07Zm-33.88-18.15s-.38-.53-.88-.51c-.92,.03-1.86,1.78-1.55,3.29,.03,.16,.26,1.23,.78,1.3,.89,.11,2.54-2.79,1.64-4.07Zm42.71,25.43s0-.65-.42-.93c-.76-.51-2.55,.37-3.16,1.78-.06,.15-.5,1.16-.11,1.51,.67,.6,3.69-.8,3.7-2.37Zm-57.33-18.2s-.38-.53-.88-.51c-.92,.03-1.86,1.78-1.55,3.29,.03,.16,.26,1.23,.78,1.3,.89,.11,2.54-2.79,1.64-4.07Zm6.92,19.08s-.29-.4-.67-.38c-.7,.02-1.42,1.34-1.18,2.47,.03,.12,.2,.93,.59,.98,.68,.08,1.93-2.1,1.25-3.06Zm11.82-9.15s-.38-.53-.88-.51c-.92,.03-1.86,1.78-1.55,3.29,.03,.16,.26,1.23,.78,1.3,.89,.11,2.54-2.79,1.64-4.07Zm-30.01,.99s-.38-.53-.88-.51c-.92,.03-1.86,1.78-1.55,3.29,.03,.16,.26,1.23,.78,1.3,.89,.11,2.54-2.79,1.64-4.07Zm36.15,13.39s-.38-.53-.88-.51c-.92,.03-1.86,1.78-1.55,3.29,.03,.16,.26,1.23,.78,1.3,.89,.11,2.54-2.79,1.64-4.07Zm-12.24,3.86s-.38-.53-.88-.51c-.92,.03-1.86,1.78-1.55,3.29,.03,.16,.26,1.23,.78,1.3,.89,.11,2.54-2.79,1.64-4.07Zm-8.68,3.38s-.38-.53-.88-.51c-.92,.03-1.86,1.78-1.55,3.29,.03,.16,.26,1.23,.78,1.3,.89,.11,2.54-2.79,1.64-4.07Zm-5.33-19.33s-.38-.53-.88-.51c-.92,.03-1.86,1.78-1.55,3.29,.03,.16,.26,1.23,.78,1.3,.89,.11,2.54-2.79,1.64-4.07Zm1.37-47.65s-.38-.53-.88-.51c-.92,.03-1.86,1.78-1.55,3.29,.03,.16,.26,1.23,.78,1.3,.89,.11,2.54-2.79,1.64-4.07Zm-4.12,59.74s-.38-.53-.88-.51c-.92,.03-1.86,1.78-1.55,3.29,.03,.16,.26,1.23,.78,1.3,.89,.11,2.54-2.79,1.64-4.07Zm-21.44,.48s-.38-.53-.88-.51c-.92,.03-1.86,1.78-1.55,3.29,.03,.16,.26,1.23,.78,1.3,.89,.11,2.54-2.79,1.64-4.07Zm41.56-57.93s-.38-.53-.88-.51c-.92,.03-1.86,1.78-1.55,3.29,.03,.16,.26,1.23,.78,1.3,.89,.11,2.54-2.79,1.64-4.07Zm-24.52,21.5s-.38-.53-.88-.51c-.92,.03-1.86,1.78-1.55,3.29,.03,.16,.26,1.23,.78,1.3,.89,.11,2.54-2.79,1.64-4.07Zm16.76,16.99s-.38-.53-.88-.51c-.92,.03-1.86,1.78-1.55,3.29,.03,.16,.26,1.23,.78,1.3,.89,.11,2.54-2.79,1.64-4.07Zm-20.88,26.2s-.38-.53-.88-.51c-.92,.03-1.86,1.78-1.55,3.29,.03,.16,.26,1.23,.78,1.3,.89,.11,2.54-2.79,1.64-4.07Zm-3.46-12.16s-.38-.53-.88-.51c-.92,.03-1.86,1.78-1.55,3.29,.03,.16,.26,1.23,.78,1.3,.89,.11,2.54-2.79,1.64-4.07Z"/></g></svg>